<svg width="24" height="24" viewBox="0 0 24 24" fill="none" xmlns="http://www.w3.org/2000/svg">
<path d="M6.71005 14.7104C6.61734 14.6179 6.5438 14.508 6.49361 14.387C6.44343 14.2661 6.4176 14.1364 6.4176 14.0054C6.4176 13.8744 6.44343 13.7448 6.49361 13.6238C6.5438 13.5028 6.61734 13.3929 6.71005 13.3004L11.3 8.71041C11.3926 8.61771 11.5024 8.54416 11.6234 8.49398C11.7444 8.4438 11.8741 8.41797 12.005 8.41797C12.136 8.41797 12.2657 8.4438 12.3867 8.49398C12.5076 8.54416 12.6175 8.61771 12.71 8.71041L17.3 13.3004C17.3926 13.393 17.4661 13.5029 17.5162 13.6239C17.5663 13.7448 17.5921 13.8745 17.5921 14.0054C17.5921 14.1363 17.5663 14.266 17.5162 14.387C17.4661 14.5079 17.3926 14.6178 17.3 14.7104C17.2075 14.803 17.0976 14.8764 16.9766 14.9265C16.8556 14.9766 16.726 15.0024 16.595 15.0024C16.4641 15.0024 16.3345 14.9766 16.2135 14.9265C16.0925 14.8764 15.9826 14.803 15.89 14.7104L12 10.8304L8.12005 14.7104C7.73005 15.1004 7.09005 15.0904 6.71005 14.7104Z" fill="black"/>
</svg>
