<svg width="24" height="24" viewBox="0 0 24 24" fill="none" xmlns="http://www.w3.org/2000/svg">
<path d="M9.28995 6.71041C9.38247 6.61771 9.49236 6.54416 9.61333 6.49398C9.7343 6.4438 9.86398 6.41797 9.99495 6.41797C10.1259 6.41797 10.2556 6.4438 10.3766 6.49398C10.4976 6.54416 10.6074 6.61771 10.7 6.71041L15.29 11.3004C15.3827 11.3929 15.4562 11.5028 15.5064 11.6238C15.5566 11.7448 15.5824 11.8744 15.5824 12.0054C15.5824 12.1364 15.5566 12.2661 15.5064 12.387C15.4562 12.508 15.3827 12.6179 15.29 12.7104L10.7 17.3004C10.6074 17.393 10.4975 17.4664 10.3765 17.5165C10.2555 17.5666 10.1259 17.5924 9.99495 17.5924C9.86402 17.5924 9.73437 17.5666 9.61341 17.5165C9.49245 17.4664 9.38254 17.393 9.28995 17.3004C9.19737 17.2078 9.12393 17.0979 9.07383 16.977C9.02372 16.856 8.99793 16.7263 8.99793 16.5954C8.99793 16.4645 9.02372 16.3348 9.07383 16.2139C9.12393 16.0929 9.19737 15.983 9.28995 15.8904L13.17 12.0004L9.28995 8.12041C8.89995 7.73041 8.90995 7.09041 9.28995 6.71041Z" fill="black"/>
</svg>
