<svg width="24" height="24" viewBox="0 0 24 24" fill="none" xmlns="http://www.w3.org/2000/svg">
<path d="M14.71 6.71041C14.6175 6.61771 14.5076 6.54416 14.3867 6.49398C14.2657 6.4438 14.136 6.41797 14.005 6.41797C13.8741 6.41797 13.7444 6.4438 13.6234 6.49398C13.5024 6.54416 13.3926 6.61771 13.3 6.71041L8.71005 11.3004C8.61734 11.3929 8.5438 11.5028 8.49361 11.6238C8.44343 11.7448 8.4176 11.8744 8.4176 12.0054C8.4176 12.1364 8.44343 12.2661 8.49361 12.387C8.5438 12.508 8.61734 12.6179 8.71005 12.7104L13.3 17.3004C13.3926 17.393 13.5025 17.4664 13.6235 17.5165C13.7445 17.5666 13.8741 17.5924 14.005 17.5924C14.136 17.5924 14.2656 17.5666 14.3866 17.5165C14.5076 17.4664 14.6175 17.393 14.71 17.3004C14.8026 17.2078 14.8761 17.0979 14.9262 16.977C14.9763 16.856 15.0021 16.7263 15.0021 16.5954C15.0021 16.4645 14.9763 16.3348 14.9262 16.2139C14.8761 16.0929 14.8026 15.983 14.71 15.8904L10.83 12.0004L14.71 8.12041C15.1 7.73041 15.09 7.09041 14.71 6.71041Z" fill="black"/>
</svg>
