<svg width="40" height="40" viewBox="0 0 40 40" fill="none" xmlns="http://www.w3.org/2000/svg">
<circle cx="20" cy="20" r="19.5" stroke="black"/>
<path d="M30 20C29.9995 17.348 28.9457 14.8048 27.0705 12.9295C25.1952 11.0543 22.652 10.0005 20 10V12C21.5821 12.0004 23.1286 12.4696 24.4441 13.3485C25.7596 14.2274 26.7851 15.4765 27.391 16.938C27.7931 17.9088 28.0001 18.9492 28 20H30ZM10 18V13C10 12.7348 10.1054 12.4804 10.2929 12.2929C10.4804 12.1054 10.7348 12 11 12H16C16.2652 12 16.5196 12.1054 16.7071 12.2929C16.8946 12.4804 17 12.7348 17 13V17C17 17.2652 16.8946 17.5196 16.7071 17.7071C16.5196 17.8946 16.2652 18 16 18H14C14 20.1217 14.8429 22.1566 16.3431 23.6569C17.8434 25.1571 19.8783 26 22 26V24C22 23.7348 22.1054 23.4804 22.2929 23.2929C22.4804 23.1054 22.7348 23 23 23H27C27.2652 23 27.5196 23.1054 27.7071 23.2929C27.8946 23.4804 28 23.7348 28 24V29C28 29.2652 27.8946 29.5196 27.7071 29.7071C27.5196 29.8946 27.2652 30 27 30H22C15.373 30 10 24.627 10 18Z" fill="black"/>
<path d="M25.543 17.704C25.8449 18.4318 26.0002 19.2121 26 20H24.2C24.2001 19.4484 24.0916 18.9022 23.8806 18.3926C23.6695 17.8829 23.3602 17.4199 22.9701 17.0299C22.5801 16.6398 22.1171 16.3305 21.6074 16.1194C21.0978 15.9084 20.5516 15.7999 20 15.8V14C21.1867 14.0001 22.3466 14.352 23.3333 15.0113C24.3199 15.6706 25.0889 16.6077 25.543 17.704Z" fill="black"/>
</svg>
