<svg width="24" height="24" viewBox="0 0 24 24" fill="none" xmlns="http://www.w3.org/2000/svg">
<path d="M12.8086 8.243C12.8086 9.123 13.0386 9.861 13.4986 10.46C13.8246 10.872 14.2666 11.143 14.8256 11.272C15.3756 11.4 15.8956 11.409 16.3656 11.3C16.5256 12.25 16.2656 13.256 15.6056 14.322C14.9456 15.387 14.0906 16.189 13.0476 16.725L14.6286 19C15.4286 18.604 16.1886 18.102 16.8886 17.495C17.5986 16.888 18.2286 16.19 18.7886 15.401C19.3486 14.612 19.7686 13.721 20.0386 12.711C20.3086 11.701 20.3836 10.671 20.2546 9.611C20.0866 8.211 19.6346 7.091 18.8986 6.261C18.1636 5.42 17.2466 5 16.1506 5C15.1856 5 14.3846 5.29 13.7506 5.878C13.1226 6.454 12.8106 7.243 12.8106 8.246L12.8086 8.243ZM3.68457 8.243C3.68457 9.123 3.91457 9.861 4.37457 10.46C4.70057 10.88 5.14457 11.152 5.70157 11.277C6.26157 11.401 6.77457 11.407 7.24157 11.299C7.40157 12.239 7.15157 13.249 6.48957 14.319C5.82957 15.379 4.97657 16.179 3.93357 16.719L5.51057 19C6.31057 18.604 7.06557 18.102 7.77057 17.495C8.48704 16.879 9.12335 16.1755 9.66457 15.401C10.2206 14.611 10.6346 13.721 10.9046 12.711C11.1778 11.7016 11.2515 10.6486 11.1216 9.611C10.9556 8.211 10.5056 7.091 9.77157 6.261C9.03857 5.427 8.12457 5.009 7.02857 5.009C6.06157 5.009 5.26057 5.299 4.62657 5.886C3.99957 6.462 3.68457 7.251 3.68457 8.254L3.68457 8.243Z" fill="black"/>
</svg>
