<svg width="24" height="24" viewBox="0 0 24 24" fill="none" xmlns="http://www.w3.org/2000/svg">
<path d="M11.192 15.757C11.192 14.877 10.962 14.139 10.502 13.54C10.176 13.128 9.73404 12.857 9.17504 12.728C8.62504 12.6 8.10504 12.591 7.63504 12.7C7.47504 11.75 7.73504 10.744 8.39504 9.678C9.05504 8.613 9.91004 7.811 10.953 7.275L9.37204 5C8.57204 5.396 7.81204 5.898 7.11204 6.505C6.40204 7.112 5.77204 7.81 5.21204 8.599C4.65204 9.388 4.23204 10.279 3.96204 11.289C3.69204 12.299 3.61704 13.329 3.74604 14.389C3.91404 15.789 4.36604 16.909 5.10204 17.739C5.83704 18.58 6.75404 19 7.85004 19C8.81504 19 9.61604 18.71 10.25 18.122C10.878 17.546 11.19 16.757 11.19 15.754L11.192 15.757ZM20.316 15.757C20.316 14.877 20.086 14.139 19.626 13.54C19.3 13.12 18.856 12.848 18.299 12.723C17.739 12.599 17.226 12.593 16.759 12.701C16.599 11.761 16.849 10.751 17.511 9.681C18.171 8.621 19.024 7.821 20.067 7.281L18.49 5C17.69 5.396 16.935 5.898 16.23 6.505C15.5136 7.12099 14.8773 7.82449 14.336 8.599C13.78 9.389 13.366 10.279 13.096 11.289C12.8228 12.2984 12.7491 13.3514 12.879 14.389C13.045 15.789 13.495 16.909 14.229 17.739C14.962 18.573 15.876 18.991 16.972 18.991C17.939 18.991 18.74 18.701 19.374 18.114C20.001 17.538 20.316 16.749 20.316 15.746V15.757Z" fill="black"/>
</svg>
